<svg width="16" height="16" version="1.1" viewBox="0 0 4.2333 4.2333" xmlns="http://www.w3.org/2000/svg">
 <g style="display:none">
  <path d="m1.8521 1.0583v2.1167l-0.79375 0.79375h2.1167l-0.79375-0.79375v-2.1167z" style="fill-rule:evenodd;fill:#a5b7f3;stroke-width:.26458"/>
  <circle cx="2.1167" cy="1.0583" r=".79375" style="display:inline;fill-rule:evenodd;fill:#a5b7f3"/>
 </g>
 <g style="display:none">
  <path transform="scale(.26458)" d="m4.9492 1a3 3 0 0 0-2.9492 3 3 3 0 0 0 2 2.8281v4.1719l-3 4h8l-3-4v-4.1738a3 3 0 0 0 2-2.8262 3 3 0 0 0-3-3 3 3 0 0 0-0.050781 0z" style="fill-opacity:.68628;fill-rule:evenodd;fill:#a5b7f3"/>
 </g>
 <g style="display:none">
  <path d="m0.26458 0.26458v0.52917h0.52917v-0.52917zm0.79375 0v0.52917h0.52917v-0.52917zm0.79375 0v0.52917h0.52917v-0.52917zm0.79375 0v0.52917h0.52917v-0.52917zm0.79375 0v0.52917h0.52917v-0.52917zm-3.175 0.79375v0.52917h0.52917v-0.52917zm0.79375 0v0.52917h0.52917v-0.52917zm0.79375 0v0.52917h0.52917v-0.52917zm0.79375 0v0.52917h0.52917v-0.52917zm0.79375 0v0.52917h0.52917v-0.52917zm-3.175 0.79375v0.52917h0.52917v-0.52917zm0.79375 0v0.52917h0.52917v-0.52917zm0.79375 0v0.52917h0.52917v-0.52917zm0.79375 0v0.52917h0.52917v-0.52917zm0.79375 0v0.52917h0.52917v-0.52917zm-3.175 0.79375v0.52917h0.52917v-0.52917zm0.79375 0v0.52917h0.52917v-0.52917zm0.79375 0v0.52917h0.52917v-0.52917zm0.79375 0v0.52917h0.52917v-0.52917zm0.79375 0v0.52917h0.52917v-0.52917zm-3.175 0.79375v0.52917h0.52917v-0.52917zm0.79375 0v0.52917h0.52917v-0.52917zm0.79375 0v0.52917h0.52917v-0.52917zm0.79375 0v0.52917h0.52917v-0.52917zm0.79375 0v0.52917h0.52917v-0.52917z" fill="#a5b7f3" fill-opacity=".98824" style="stroke-width:.26458"/>
 </g>
 <g>
  <path d="m1.3229 1.5875v-0.26458h0.52917v0.52917h-0.52917z" style="fill-opacity:.68628;fill-rule:evenodd;fill:#e0e0e0;stop-color:#000000;stroke-width:4.2333"/>
  <path d="m1.3229 2.6458v-0.26458h0.52917v0.52917h-0.52917z" style="fill-opacity:.68628;fill-rule:evenodd;fill:#e0e0e0;stop-color:#000000;stroke-width:4.2333"/>
  <path d="m2.3812 1.5875v-0.26458h0.52917v0.52917h-0.52917z" style="fill-opacity:.68628;fill-rule:evenodd;fill:#e0e0e0;stop-color:#000000;stroke-width:4.2333"/>
  <path d="m2.3812 2.6458v-0.26458h0.52917v0.52917h-0.52917z" style="fill-opacity:.68628;fill-rule:evenodd;fill:#e0e0e0;stop-color:#000000;stroke-width:4.2333"/>
 </g>
 <g style="display:none">
  <path d="m1.5875 2.1167v-0.52917h1.0583v1.0583h-1.0583z" style="fill-opacity:.68628;fill-rule:evenodd;fill:#e0e0e0;stop-color:#000000;stroke-width:4.2333"/>
 </g>
 <g style="display:none">
  <path d="m2.6458 0.26458v2.3812h-0.79375l1.0583 1.3229 1.0583-1.3229h-0.79375v-2.3812z" fill="#a5b7f3" style="display:inline;stroke-width:.26458"/>
 </g>
 <g style="display:none">
  <path d="m1.8521 1.5875v1.0583l-0.52917 0.52917h1.5875l-0.52917-0.52917v-1.0583z" style="fill-rule:evenodd;fill:#a5b7f3;stroke-width:.26458"/>
  <circle cx="2.1167" cy="1.5875" r=".52917" style="display:inline;fill-rule:evenodd;fill:#a5b7f3"/>
 </g>
 <g>
  <path transform="scale(.26458)" d="m1.786 14.97c-0.2774-0.05974-0.54387-0.2679-0.66974-0.52317-0.12204-0.24751-0.1122 0.34582-0.10772-6.4951l0.00402-6.1372 0.047811-0.1335c0.10684-0.29831 0.33855-0.52896 0.63164-0.62872l0.1018-0.034651 6.1711-4e-3c5.4628-0.00354 6.182-0.00129 6.2656 0.019611 0.36123 0.090258 0.64489 0.37393 0.73515 0.73515 0.0209 0.083663 0.02316 0.80363 0.01961 6.2734l-4e-3 6.1789-0.04098 0.10534c-0.05987 0.15389-0.13404 0.26965-0.24185 0.37746-0.11187 0.11187-0.22522 0.18304-0.38382 0.24097l-0.1146 0.04186-6.1563 0.0027c-5.2251 0.0023-6.1716-5.85e-4 -6.2578-0.01915zm11.219-6.9679v-5.0078h-10.016v10.016h10.016z" style="fill-rule:evenodd;fill:#a5b7f4;stop-color:#000000;stroke-width:16"/>
 </g>
</svg>
