<svg width="16" height="16" version="1.1" viewBox="0 0 4.2333 4.2333" xmlns="http://www.w3.org/2000/svg">
 <g style="display:none">
  <path d="m1.8521 1.0583v2.1167l-0.79375 0.79375h2.1167l-0.79375-0.79375v-2.1167z" style="fill-rule:evenodd;fill:#a5b7f3;stroke-width:.26458"/>
  <circle cx="2.1167" cy="1.0583" r=".79375" style="display:inline;fill-rule:evenodd;fill:#a5b7f3"/>
 </g>
 <g style="display:none">
  <path d="m1.0583 1.0583v2.1167l-0.79375 0.79375h2.1167l-0.79375-0.79375v-2.1167z" style="fill-rule:evenodd;fill:#a5b7f3;stroke-width:.26458"/>
 </g>
 <g style="display:none">
  <circle cx="1.3229" cy="1.0583" r=".79375" style="display:inline;fill-rule:evenodd;fill:#a5b7f3"/>
 </g>
 <g style="display:none">
  <path d="m2.6458 0.26458v2.3812h-0.79375l1.0583 1.3229 1.0583-1.3229h-0.79375v-2.3812z" fill="#a5b7f3" style="display:inline;stroke-width:.26458"/>
 </g>
 <g style="mix-blend-mode:normal">
  <path transform="scale(.26458)" d="m7.9512 4a2 2 0 0 0-1.9512 2 2 2 0 0 0 1 1.7305v2.2695l-2 2h6l-2-2v-2.2695a2 2 0 0 0 1-1.7305 2 2 0 0 0-2-2 2 2 0 0 0-0.048828 0z" style="fill-opacity:.68628;fill-rule:evenodd;fill:#a5b7f3"/>
 </g>
 <g>
  <path transform="scale(.26458)" d="m1.786 14.97c-0.2774-0.05974-0.54387-0.2679-0.66974-0.52317-0.12204-0.24751-0.1122 0.34582-0.10772-6.4951l0.00402-6.1372 0.047811-0.1335c0.10684-0.29831 0.33855-0.52896 0.63164-0.62872l0.1018-0.034651 6.1711-4e-3c5.4628-0.00354 6.182-0.00129 6.2656 0.019611 0.36123 0.090258 0.64489 0.37393 0.73515 0.73515 0.0209 0.083663 0.02316 0.80363 0.01961 6.2734l-4e-3 6.1789-0.04098 0.10534c-0.05987 0.15389-0.13404 0.26965-0.24185 0.37746-0.11187 0.11187-0.22522 0.18304-0.38382 0.24097l-0.1146 0.04186-6.1563 0.0027c-5.2251 0.0023-6.1716-5.85e-4 -6.2578-0.01915zm11.219-6.9679v-5.0078h-10.016v10.016h10.016z" style="fill-opacity:.98824;fill-rule:evenodd;fill:#a5b7f4;stop-color:#000000;stroke-width:16"/>
 </g>
 <g style="display:none">
  <circle cx="2.1167" cy="2.1167" r=".52917" style="display:inline;fill-opacity:.68628;fill-rule:evenodd;fill:#a5b7f3"/>
  <path d="m0.79375 2.1167 0.52917-0.52917v1.0583z" style="fill-opacity:.68628;fill:#e0e0e0"/>
  <path d="m3.4396 2.1167-0.52917 0.52917v-1.0583z" style="fill-opacity:.68628;fill:#e0e0e0"/>
 </g>
 <g style="display:none">
  <path d="m0.21165 3.4285c-0.073395-0.015806-0.1439-0.070881-0.1772-0.13842-0.032291-0.065488-0.03157 0.14897-0.029307-1.1867l0.00187-1.0931 0.01265-0.035323c0.028267-0.078929 0.089576-0.13995 0.16712-0.16635l0.026935-0.009168 1.8945-4.9477e-4c1.4454-3.7748e-4 1.899-9.0454e-4 1.9211 0.004626 0.095575 0.023881 0.17063 0.098934 0.19451 0.19451 0.00553 0.022136 0.00532-0.31804 0.00438 1.1292l-2.542e-4 1.103-0.010843 0.02787c-0.015841 0.040717-0.035465 0.071345-0.063989 0.099869-0.029599 0.029599-0.13799 0.037917-0.10155 0.063756l-0.030322 0.011076-1.8922 0.00128c-1.3825 6.053e-4 -1.8946-7.211e-4 -1.9174-0.0056332zm3.4925-1.3118 7.937e-4 -0.79431-1.5883 5.636e-4 -1.5867-5.636e-4 -8.0698e-4 0.79431 8.0698e-4 0.79319 1.5867 5.636e-4 1.5883-5.636e-4z" style="display:inline;fill-opacity:.98824;fill-rule:evenodd;fill:#a5b7f4;stop-color:#000000;stroke-width:4.2333"/>
 </g>
 <g style="display:none">
  <rect y=".79375" width="4.2333" height="2.6458" rx=".26458" style="fill-rule:evenodd;fill:#fff;stroke-width:.26458"/>
  <rect x=".52917" y="1.3229" width="3.175" height="1.5875" style="fill-rule:evenodd;stroke-width:.26458"/>
 </g>
 <g style="display:none">
  <path transform="scale(.26458)" d="m0.78481 12.969c-0.27514-0.058898-0.5446-0.27007-0.66705-0.52275-0.035398-0.073047-0.073816-0.17148-0.085374-0.21875-0.017333-0.070885-0.021014-0.81258-0.021014-4.2344 0-3.9769 0.0011854-4.1526 0.028675-4.25 0.092108-0.32624 0.34167-0.5813 0.68226-0.69729 0.083507-0.02844 0.28921-0.029268 7.2734-0.029268h7.1875l0.10938 0.034655c0.29579 0.093719 0.5264 0.31688 0.64652 0.62563l0.04098 0.10534v8.4219l-0.03589 0.10386c-0.10246 0.29645-0.34048 0.53403-0.63598 0.63478l-0.125 0.04262-7.1484 0.0027c-6.0546 0.0023-7.164-6.12e-4 -7.25-0.01903zm13.219-4.9681v-3.0078h-12.016v6.0156h12.016z" style="fill-opacity:.98824;fill-rule:evenodd;fill:#a5b7f5;stop-color:#000000"/>
 </g>
</svg>
